<svg xmlns="http://www.w3.org/2000/svg" width="352" height="352" viewBox="0 0 3520 3520" style="background-color:#000000">
<g fill="#ffffff">
	<path d="M320 2400 l0 -800 160 0 160 0 0 320 0 320 320 0 320 0 0 480 0 480 -480 0 -480 0 0 -800z m640 320 l0 -160 -160 0 -160 0 0 160 0 160 160 0 160 0 0 -160z"></path>
	<path d="M1600 2560 l0 -640 -320 0 -320 0 0 -160 0 -160 480 0 480 0 0 800 0 800 -160 0 -160 0 0 -640z"></path>
	<path d="M2240 2720 l0 -480 160 0 160 0 0 320 0 320 320 0 320 0 0 160 0 160 -480 0 -480 0 0 -480z"></path>
	<path d="M320 1120 l0 -160 320 0 320 0 0 -160 0 -160 -320 0 -320 0 0 -160 0 -160 480 0 480 0 0 480 0 480 -480 0 -480 0 0 -160z"></path>
	<path d="M2240 800 l0 -480 480 0 480 0 0 480 0 480 -480 0 -480 0 0 -480z m640 0 l0 -160 -160 0 -160 0 0 160 0 160 160 0 160 0 0 -160z"></path>
</g>
<g fill="#333333">
	<path d="M2880 2240 l0 -320 -320 0 -320 0 0 -160 0 -160 480 0 480 0 0 480 0 480 -160 0 -160 0 0 -320z"></path>
	<path d="M1600 800 l0 -480 160 0 160 0 0 480 0 480 -160 0 -160 0 0 -480z"></path>
</g>
</svg>