<svg xmlns="http://www.w3.org/2000/svg" width="300px" height="300px" viewBox="0 0 300 300" style="background-color:#000000">
<g fill="#ffffff">
	<path d="M45,195v-60H15v150h90v-90H45z M75,255H45v-30h30V255z"/>
	<polygon points="165,135 165,285 135,285 135,165 75,165 75,135"/>
	<polygon points="285,255 285,285 195,285 195,195 225,195 225,255"/>
	<polygon fill="#333333" points="285,135 285,225 255,225 255,165 195,165 195,135"/>
	<path d="M195,15v90h90V15H195z M255,75h-30V45h30V75z"/>
	<rect x="135" y="14.999" fill="#333333" width="30" height="90.001"/>
	<polygon points="105,15 105,105 15,105 15,75 75,75 75,45 15,45 15,15"/>
</g>
</svg>