<svg xmlns="http://www.w3.org/2000/svg" width="32" height="32" fill="#fff" viewBox="0 0 256 256">
	<symbol id="arrow-right" viewBox="0 0 256 256">
		<path d="M221.66,133.66l-72,72a8,8,0,0,1-11.32-11.32L196.69,136H40a8,8,0,0,1,0-16H196.69L138.34,61.66a8,8,0,0,1,11.32-11.32l72,72A8,8,0,0,1,221.66,133.66Z"></path>
	</symbol>
	<symbol id="arrow-up" viewBox="0 0 256 256">
		<path d="M205.66,117.66a8,8,0,0,1-11.32,0L136,59.31V216a8,8,0,0,1-16,0V59.31L61.66,117.66a8,8,0,0,1-11.32-11.32l72-72a8,8,0,0,1,11.32,0l72,72A8,8,0,0,1,205.66,117.66Z"></path>
	</symbol>
	<symbol id="chats" viewBox="0 0 256 256">
		<path d="M216,80H184V48a16,16,0,0,0-16-16H40A16,16,0,0,0,24,48V176a8,8,0,0,0,13,6.22L72,154V184a16,16,0,0,0,16,16h93.59L219,230.22a8,8,0,0,0,5,1.78,8,8,0,0,0,8-8V96A16,16,0,0,0,216,80ZM66.55,137.78,40,159.25V48H168v88H71.58A8,8,0,0,0,66.55,137.78ZM216,207.25l-26.55-21.47a8,8,0,0,0-5-1.78H88V152h80a16,16,0,0,0,16-16V96h32Z"></path>
	</symbol>
	<symbol id="code" viewBox="0 0 256 256">
		<path d="M69.12,94.15,28.5,128l40.62,33.85a8,8,0,1,1-10.24,12.29l-48-40a8,8,0,0,1,0-12.29l48-40a8,8,0,0,1,10.24,12.3Zm176,27.7-48-40a8,8,0,1,0-10.24,12.3L227.5,128l-40.62,33.85a8,8,0,1,0,10.24,12.29l48-40a8,8,0,0,0,0-12.29ZM162.73,32.48a8,8,0,0,0-10.25,4.79l-64,176a8,8,0,0,0,4.79,10.26A8.14,8.14,0,0,0,96,224a8,8,0,0,0,7.52-5.27l64-176A8,8,0,0,0,162.73,32.48Z"></path>
	</symbol>
	<symbol id="envelope-simple" viewBox="0 0 256 256">
		<path d="M224,48H32a8,8,0,0,0-8,8V192a16,16,0,0,0,16,16H216a16,16,0,0,0,16-16V56A8,8,0,0,0,224,48ZM203.43,64,128,133.15,52.57,64ZM216,192H40V74.19l82.59,75.71a8,8,0,0,0,10.82,0L216,74.19V192Z"></path>
	</symbol>
	<symbol id="globe" viewBox="0 0 256 256">
		<path d="M128,24A104,104,0,1,0,232,128,104.11,104.11,0,0,0,128,24ZM101.63,168h52.74C149,186.34,140,202.87,128,215.89,116,202.87,107,186.34,101.63,168ZM98,152a145.72,145.72,0,0,1,0-48h60a145.72,145.72,0,0,1,0,48ZM40,128a87.61,87.61,0,0,1,3.33-24H81.79a161.79,161.79,0,0,0,0,48H43.33A87.61,87.61,0,0,1,40,128ZM154.37,88H101.63C107,69.66,116,53.13,128,40.11,140,53.13,149,69.66,154.37,88Zm19.84,16h38.46a88.15,88.15,0,0,1,0,48H174.21a161.79,161.79,0,0,0,0-48Zm32.16-16H170.94a142.39,142.39,0,0,0-20.26-45A88.37,88.37,0,0,1,206.37,88ZM105.32,43A142.39,142.39,0,0,0,85.06,88H49.63A88.37,88.37,0,0,1,105.32,43ZM49.63,168H85.06a142.39,142.39,0,0,0,20.26,45A88.37,88.37,0,0,1,49.63,168Zm101.05,45a142.39,142.39,0,0,0,20.26-45h35.43A88.37,88.37,0,0,1,150.68,213Z"></path>
	</symbol>
	<symbol id="info" viewBox="0 0 256 256">
		<path d="M128,24A104,104,0,1,0,232,128,104.11,104.11,0,0,0,128,24Zm0,192a88,88,0,1,1,88-88A88.1,88.1,0,0,1,128,216Zm16-40a8,8,0,0,1-8,8,16,16,0,0,1-16-16V128a8,8,0,0,1,0-16,16,16,0,0,1,16,16v40A8,8,0,0,1,144,176ZM112,84a12,12,0,1,1,12,12A12,12,0,0,1,112,84Z"></path>
	</symbol>
	<symbol id="key" viewBox="0 0 256 256">
		<path d="M160,16A80.07,80.07,0,0,0,83.91,120.78L26.34,178.34A8,8,0,0,0,24,184v40a8,8,0,0,0,8,8H72a8,8,0,0,0,8-8V208H96a8,8,0,0,0,8-8V184h16a8,8,0,0,0,5.66-2.34l9.56-9.57A80,80,0,1,0,160,16Zm0,144a63.7,63.7,0,0,1-23.65-4.51,8,8,0,0,0-8.84,1.68L116.69,168H96a8,8,0,0,0-8,8v16H72a8,8,0,0,0-8,8v16H40V187.31l58.83-58.82a8,8,0,0,0,1.68-8.84A64,64,0,1,1,160,160Zm32-84a12,12,0,1,1-12-12A12,12,0,0,1,192,76Z"></path>
	</symbol>
	<symbol id="moon" viewBox="0 0 256 256">
		<path d="M233.54,142.23a8,8,0,0,0-8-2,88.08,88.08,0,0,1-109.8-109.8,8,8,0,0,0-10-10,104.84,104.84,0,0,0-52.91,37A104,104,0,0,0,136,224a103.09,103.09,0,0,0,62.52-20.88,104.84,104.84,0,0,0,37-52.91A8,8,0,0,0,233.54,142.23ZM188.9,190.34A88,88,0,0,1,65.66,67.11a89,89,0,0,1,31.4-26A106,106,0,0,0,96,56,104.11,104.11,0,0,0,200,160a106,106,0,0,0,14.92-1.06A89,89,0,0,1,188.9,190.34Z"></path>
	</symbol>
	<symbol id="repeat" viewBox="0 0 256 256">
		<path d="M24,128A72.08,72.08,0,0,1,96,56H204.69L194.34,45.66a8,8,0,0,1,11.32-11.32l24,24a8,8,0,0,1,0,11.32l-24,24a8,8,0,0,1-11.32-11.32L204.69,72H96a56.06,56.06,0,0,0-56,56,8,8,0,0,1-16,0Zm200-8a8,8,0,0,0-8,8,56.06,56.06,0,0,1-56,56H51.31l10.35-10.34a8,8,0,0,0-11.32-11.32l-24,24a8,8,0,0,0,0,11.32l24,24a8,8,0,0,0,11.32-11.32L51.31,200H160a72.08,72.08,0,0,0,72-72A8,8,0,0,0,224,120Z"></path>
	</symbol>
	<symbol id="rss-simple" viewBox="0 0 256 256">
		<path d="M216,200a8,8,0,0,1-16,0c0-79.4-64.6-144-144-144a8,8,0,0,1,0-16C144.22,40,216,111.78,216,200ZM56,112a8,8,0,0,0,0,16,72.08,72.08,0,0,1,72,72,8,8,0,0,0,16,0A88.1,88.1,0,0,0,56,112Zm4,72a12,12,0,1,0,12,12A12,12,0,0,0,60,184Z"></path>
	</symbol>
	<symbol id="sun" viewBox="0 0 256 256">
		<path d="M120,40V16a8,8,0,0,1,16,0V40a8,8,0,0,1-16,0Zm72,88a64,64,0,1,1-64-64A64.07,64.07,0,0,1,192,128Zm-16,0a48,48,0,1,0-48,48A48.05,48.05,0,0,0,176,128ZM58.34,69.66A8,8,0,0,0,69.66,58.34l-16-16A8,8,0,0,0,42.34,53.66Zm0,116.68-16,16a8,8,0,0,0,11.32,11.32l16-16a8,8,0,0,0-11.32-11.32ZM192,72a8,8,0,0,0,5.66-2.34l16-16a8,8,0,0,0-11.32-11.32l-16,16A8,8,0,0,0,192,72Zm5.66,114.34a8,8,0,0,0-11.32,11.32l16,16a8,8,0,0,0,11.32-11.32ZM48,128a8,8,0,0,0-8-8H16a8,8,0,0,0,0,16H40A8,8,0,0,0,48,128Zm80,80a8,8,0,0,0-8,8v24a8,8,0,0,0,16,0V216A8,8,0,0,0,128,208Zm112-88H216a8,8,0,0,0,0,16h24a8,8,0,0,0,0-16Z"></path>
	</symbol>
	<symbol id="text-align-left" viewBox="0 0 256 256">
		<path d="M32,64a8,8,0,0,1,8-8H216a8,8,0,0,1,0,16H40A8,8,0,0,1,32,64Zm8,48H168a8,8,0,0,0,0-16H40a8,8,0,0,0,0,16Zm176,24H40a8,8,0,0,0,0,16H216a8,8,0,0,0,0-16Zm-48,40H40a8,8,0,0,0,0,16H168a8,8,0,0,0,0-16Z"></path>
	</symbol>
</svg>