<?xml version="1.0" encoding="UTF-8"?>
<svg fill="currentColor" version="1.1" viewBox="0 0 256 256" xmlns="http://www.w3.org/2000/svg">
<g transform="matrix(5.0621 0 0 5.0621 6.5103 6.5039)" fill="none" stroke="#000" stroke-linecap="round" stroke-linejoin="round">
<path class="a" d="m41.066 20.402c0 6.2578-0.9723 8.3975-2.8838 10.19-3.8743 3.6342-14.182 3.3518-14.182 3.3518-2.349 0.02864-4.6959-0.1482-7.0141-0.5285 0 0-0.73081 7.8093 13.499 4.1734l-0.1445 4.2408c-2.1685 0.29-23.202 7.5249-23.351-19.052l-0.056-2.3759c0-6.2578 0.05-8.4823 2.8838-11.611 3.5658-3.9373 14.183-3.4353 14.183-3.4353s10.617-0.502 14.182 3.4353c2.8336 3.129 2.8838 5.3535 2.8838 11.611" stroke-width="3.1607"/>
<path class="a" d="m24 23.312v-5.9774a4.6542 4.6542 0 0 0-4.6543-4.6542 4.6542 4.6542 0 0 0-4.6542 4.6542v9.6463" stroke-width="3.1607"/>
<path class="a" d="m24 17.335a4.6542 4.6542 0 0 1 4.6543-4.6542 4.6542 4.6542 0 0 1 4.6542 4.6542v9.6463" stroke-width="3.1607"/>
</g>
</svg>