<svg xmlns="http://www.w3.org/2000/svg" width="32" height="32" fill="#fff" viewBox="0 0 256 256">
	<symbol id="circle" viewBox="0 0 256 256">
		<path d="M128,24A104,104,0,1,0,232,128,104.11,104.11,0,0,0,128,24Zm0,192a88,88,0,1,1,88-88A88.1,88.1,0,0,1,128,216Z"></path>
	</symbol>
	<symbol id="github-logo" viewBox="0 0 256 256">
		<path d="M208.31,75.68A59.78,59.78,0,0,0,202.93,28,8,8,0,0,0,196,24a59.75,59.75,0,0,0-48,24H124A59.75,59.75,0,0,0,76,24a8,8,0,0,0-6.93,4,59.78,59.78,0,0,0-5.38,47.68A58.14,58.14,0,0,0,56,104v8a56.06,56.06,0,0,0,48.44,55.47A39.8,39.8,0,0,0,96,192v8H72a24,24,0,0,1-24-24A40,40,0,0,0,8,136a8,8,0,0,0,0,16,24,24,0,0,1,24,24,40,40,0,0,0,40,40H96v16a8,8,0,0,0,16,0V192a24,24,0,0,1,48,0v40a8,8,0,0,0,16,0V192a39.8,39.8,0,0,0-8.44-24.53A56.06,56.06,0,0,0,216,112v-8A58.14,58.14,0,0,0,208.31,75.68ZM200,112a40,40,0,0,1-40,40H112a40,40,0,0,1-40-40v-8a41.74,41.74,0,0,1,6.9-22.48A8,8,0,0,0,80,73.83a43.81,43.81,0,0,1,.79-33.58,43.88,43.88,0,0,1,32.32,20.06A8,8,0,0,0,119.82,64h32.35a8,8,0,0,0,6.74-3.69,43.87,43.87,0,0,1,32.32-20.06A43.81,43.81,0,0,1,192,73.83a8.09,8.09,0,0,0,1,7.65A41.72,41.72,0,0,1,200,104Z"></path>
	</symbol>
	<symbol id="gitlab-logo-simple" viewBox="0 0 256 256">
		<path d="M230.15,117.1,210.25,41a11.94,11.94,0,0,0-22.79-1.11L169.78,88H86.22L68.54,39.87A11.94,11.94,0,0,0,45.75,41L25.85,117.1a57.19,57.19,0,0,0,22,61l73.27,51.76a11.91,11.91,0,0,0,13.74,0l73.27-51.76A57.19,57.19,0,0,0,230.15,117.1ZM198.91,165,128,215.09,57.09,165a41.1,41.1,0,0,1-15.75-43.84L58,57.5,73.13,98.76A8,8,0,0,0,80.64,104h94.72a8,8,0,0,0,7.51-5.24L198,57.5l16.63,63.65A41.1,41.1,0,0,1,198.91,165Z"></path>
	</symbol>
	<symbol id="instagram-logo" viewBox="0 0 256 256">
		<path d="M128,80a48,48,0,1,0,48,48A48.05,48.05,0,0,0,128,80Zm0,80a32,32,0,1,1,32-32A32,32,0,0,1,128,160ZM176,24H80A56.06,56.06,0,0,0,24,80v96a56.06,56.06,0,0,0,56,56h96a56.06,56.06,0,0,0,56-56V80A56.06,56.06,0,0,0,176,24Zm40,152a40,40,0,0,1-40,40H80a40,40,0,0,1-40-40V80A40,40,0,0,1,80,40h96a40,40,0,0,1,40,40ZM192,76a12,12,0,1,1-12-12A12,12,0,0,1,192,76Z"></path>
	</symbol>
	<symbol id="linkedin-logo" viewBox="0 0 256 256">
		<path d="M216,24H40A16,16,0,0,0,24,40V216a16,16,0,0,0,16,16H216a16,16,0,0,0,16-16V40A16,16,0,0,0,216,24Zm0,192H40V40H216V216ZM96,112v64a8,8,0,0,1-16,0V112a8,8,0,0,1,16,0Zm88,28v36a8,8,0,0,1-16,0V140a20,20,0,0,0-40,0v36a8,8,0,0,1-16,0V112a8,8,0,0,1,15.79-1.78A36,36,0,0,1,184,140ZM100,84A12,12,0,1,1,88,72,12,12,0,0,1,100,84Z"></path>
	</symbol>
	<symbol id="mastodon" viewBox="0 0 256 256">
		<path d="M184,32H72A40,40,0,0,0,32,72V192a40,40,0,0,0,40,40h88a8,8,0,0,0,0-16H72a24,24,0,0,1-24-24v-8H184a40,40,0,0,0,40-40V72A40,40,0,0,0,184,32Zm24,112a24,24,0,0,1-24,24H48V72A24,24,0,0,1,72,48H184a24,24,0,0,1,24,24Zm-24-40v32a8,8,0,0,1-16,0V104a16,16,0,0,0-32,0v32a8,8,0,0,1-16,0V104a16,16,0,0,0-32,0v32a8,8,0,0,1-16,0V104a32,32,0,0,1,56-21.13A32,32,0,0,1,184,104Z"></path>
	</symbol>
</svg>