<svg xmlns="http://www.w3.org/2000/svg" width="32" height="32" fill="#fff" viewBox="0 0 256 256">
	<symbol id="arrow-bend-up-left" viewBox="0 0 256 256">
		<path d="M232,200a8,8,0,0,1-16,0,88.1,88.1,0,0,0-88-88H51.31l34.35,34.34a8,8,0,0,1-11.32,11.32l-48-48a8,8,0,0,1,0-11.32l48-48A8,8,0,0,1,85.66,61.66L51.31,96H128A104.11,104.11,0,0,1,232,200Z"></path>
	</symbol>
	<symbol id="book" viewBox="0 0 256 256">
		<path d="M208,24H72A32,32,0,0,0,40,56V224a8,8,0,0,0,8,8H192a8,8,0,0,0,0-16H56a16,16,0,0,1,16-16H208a8,8,0,0,0,8-8V32A8,8,0,0,0,208,24Zm-8,160H72a31.82,31.82,0,0,0-16,4.29V56A16,16,0,0,1,72,40H200Z"></path>
	</symbol>
	<symbol id="bookmark-simple" viewBox="0 0 256 256">
		<path d="M184,32H72A16,16,0,0,0,56,48V224a8,8,0,0,0,12.24,6.78L128,193.43l59.77,37.35A8,8,0,0,0,200,224V48A16,16,0,0,0,184,32Zm0,177.57-51.77-32.35a8,8,0,0,0-8.48,0L72,209.57V48H184Z"></path>
	</symbol>
	<symbol id="calendar" viewBox="0 0 256 256">
		<path d="M208,32H184V24a8,8,0,0,0-16,0v8H88V24a8,8,0,0,0-16,0v8H48A16,16,0,0,0,32,48V208a16,16,0,0,0,16,16H208a16,16,0,0,0,16-16V48A16,16,0,0,0,208,32ZM72,48v8a8,8,0,0,0,16,0V48h80v8a8,8,0,0,0,16,0V48h24V80H48V48ZM208,208H48V96H208V208Zm-96-88v64a8,8,0,0,1-16,0V132.94l-4.42,2.22a8,8,0,0,1-7.16-14.32l16-8A8,8,0,0,1,112,120Zm59.16,30.45L152,176h16a8,8,0,0,1,0,16H136a8,8,0,0,1-6.4-12.8l28.78-38.37A8,8,0,1,0,145.07,132a8,8,0,1,1-13.85-8A24,24,0,0,1,176,136,23.76,23.76,0,0,1,171.16,150.45Z"></path>
	</symbol>
	<symbol id="film-slate" viewBox="0 0 256 256">
		<path d="M216,104H102.09L210,75.51a8,8,0,0,0,5.68-9.84l-8.16-30a15.93,15.93,0,0,0-19.42-11.13L35.81,64.74a15.75,15.75,0,0,0-9.7,7.4,15.51,15.51,0,0,0-1.55,12L32,111.56c0,.14,0,.29,0,.44v88a16,16,0,0,0,16,16H208a16,16,0,0,0,16-16V112A8,8,0,0,0,216,104ZM192.16,40l6,22.07-22.62,6L147.42,51.83Zm-66.69,17.6,28.12,16.24-36.94,9.75L88.53,67.37Zm-79.4,44.62-6-22.08,26.5-7L94.69,89.4ZM208,200H48V120H208v80Z"></path>
	</symbol>
	<symbol id="music-notes" viewBox="0 0 256 256">
		<path d="M212.92,17.69a8,8,0,0,0-6.86-1.45l-128,32A8,8,0,0,0,72,56V166.08A36,36,0,1,0,88,196V110.25l112-28v51.83A36,36,0,1,0,216,164V24A8,8,0,0,0,212.92,17.69ZM52,216a20,20,0,1,1,20-20A20,20,0,0,1,52,216ZM88,93.75V62.25l112-28v31.5ZM180,184a20,20,0,1,1,20-20A20,20,0,0,1,180,184Z"></path>
	</symbol>
	<symbol id="newspaper" viewBox="0 0 256 256">
		<path d="M88,112a8,8,0,0,1,8-8h80a8,8,0,0,1,0,16H96A8,8,0,0,1,88,112Zm8,40h80a8,8,0,0,0,0-16H96a8,8,0,0,0,0,16ZM232,64V184a24,24,0,0,1-24,24H32A24,24,0,0,1,8,184.11V88a8,8,0,0,1,16,0v96a8,8,0,0,0,16,0V64A16,16,0,0,1,56,48H216A16,16,0,0,1,232,64Zm-16,0H56V184a23.84,23.84,0,0,1-1.37,8H208a8,8,0,0,0,8-8Z"></path>
	</symbol>
	<symbol id="note" viewBox="0 0 256 256">
		<path d="M88,96a8,8,0,0,1,8-8h64a8,8,0,0,1,0,16H96A8,8,0,0,1,88,96Zm8,40h64a8,8,0,0,0,0-16H96a8,8,0,0,0,0,16Zm32,16H96a8,8,0,0,0,0,16h32a8,8,0,0,0,0-16ZM224,48V156.69A15.86,15.86,0,0,1,219.31,168L168,219.31A15.86,15.86,0,0,1,156.69,224H48a16,16,0,0,1-16-16V48A16,16,0,0,1,48,32H208A16,16,0,0,1,224,48ZM48,208H152V160a8,8,0,0,1,8-8h48V48H48Zm120-40v28.7L196.69,168Z"></path>
	</symbol>
	<symbol id="star" viewBox="0 0 256 256">
		<path d="M239.2,97.29a16,16,0,0,0-13.81-11L166,81.17,142.72,25.81h0a15.95,15.95,0,0,0-29.44,0L90.07,81.17,30.61,86.32a16,16,0,0,0-9.11,28.06L66.61,153.8,53.09,212.34a16,16,0,0,0,23.84,17.34l51-31,51.11,31a16,16,0,0,0,23.84-17.34l-13.51-58.6,45.1-39.36A16,16,0,0,0,239.2,97.29Zm-15.22,5-45.1,39.36a16,16,0,0,0-5.08,15.71L187.35,216v0l-51.07-31a15.9,15.9,0,0,0-16.54,0l-51,31h0L82.2,157.4a16,16,0,0,0-5.08-15.71L32,102.35a.37.37,0,0,1,0-.09l59.44-5.14a16,16,0,0,0,13.35-9.75L128,32.08l23.2,55.29a16,16,0,0,0,13.35,9.75L224,102.26S224,102.32,224,102.33Z"></path>
	</symbol>
</svg>